# xmcd
#
# Track frame offsets:
# 150
# 12243
# 28108
# 42923
# 56103
# 71568
# 85725
# 100958
# 115825
# 128870
# 142163
# 155661
# 168262
# 180493
# 191870
# 204488
# 218310
# 232310
# 246407
# 262060
# 275983
# 289215
# 301891
# 316659
# 329759
#
# Disc length: 4585 seconds
#
# Revision: 0
# Processed by: cddbd v1.5.2PL0 Copyright (c) Steve Scherf et al.
# Submitted via: Audion 3.0.2 (http://www.panic.com/audion/)
#
DISCID=8411e719
DTITLE=Various Artist - The Big Blast, 100 Classic Big Bands, Ridin' High (disk 2)
DYEAR=1900
DGENRE=
TTITLE0=Ridin' High - Benny Goodman and His Orchestra
TTITLE1=South Rampart Street Parade - Bob Crosby and His Orchestra
TTITLE2=Meet The Band - Edgar Hayes and His Orchestra
TTITLE3=Trans-Continental - Spud Murphy and His Orchestra
TTITLE4=My Reverie - Larry Clinton and His Orchestra
TTITLE5=Jumpin' At The Woodside - Count Basie and His Orchestra
TTITLE6=Moonlight Serenade - Glenn Miller Orchestra
TTITLE7=Tuxedo Junction - Erskine Hawkins and His Orchestra
TTITLE8=720 In The Books - Jan savitt and His Top Hatters Orchestra
TTITLE9=Swingin' On The Teagarden Gate - Jack Teagarden and His Orchestra
TTITLE10=Wham (Re-Bop-Boom-Bam) - Teddy Wilson and His Orchestra
TTITLE11=Pickin' The Cabbage - Cab Calloway and His Orchestra
TTITLE12=Ko-Ko - Duke Ellington and His Orchestra
TTITLE13=Deep Forest - Earl Hines and His Orchestra
TTITLE14=Kitty On Toast - Horace Henderson and His Orchestra
TTITLE15=Contrasts - Jimmy Dorsey and His Orchestra
TTITLE16=400 Swing - Harlan Leonard and His Rockets
TTITLE17=Bounce Me, Brother, With A Solid Four - Will Bradley and His Orchestra
TTITLE18=South Bayou She - Hal McIntyre and His Orchestra
TTITLE19=Well Git It - Tommy Dorsey Orchestra
TTITLE20=The Elks Parade - Bobby Sherwood and His Orchestra
TTITLE21=American Patrol - Muggsy Spanier and His Orchestra
TTITLE22=Sepian Bounce - Jay McShann and His Orchestra
TTITLE23=McGhee Special - Andy Kirk and His Clouds Of Joy
TTITLE24=Little John Special - Lucky Millinder and His Orchestra
EXTD=
EXTT0=
EXTT1=
EXTT2=
EXTT3=
EXTT4=
EXTT5=
EXTT6=
EXTT7=
EXTT8=
EXTT9=
EXTT10=
EXTT11=
EXTT12=
EXTT13=
EXTT14=
EXTT15=
EXTT16=
EXTT17=
EXTT18=
EXTT19=
EXTT20=
EXTT21=
EXTT22=
EXTT23=
EXTT24=
PLAYORDER=
